<?xml version="1.0" standalone="no"?>
<!DOCTYPE svg PUBLIC "-//W3C//DTD SVG 20010904//EN"
 "http://www.w3.org/TR/2001/REC-SVG-20010904/DTD/svg10.dtd">
<svg version="1.0" xmlns="http://www.w3.org/2000/svg"
 width="801.000000pt" height="801.000000pt" viewBox="0 0 801.000000 801.000000"
 preserveAspectRatio="xMidYMid meet">
<metadata>
Created by potrace 1.14, written by Peter Selinger 2001-2017
</metadata>
<g transform="translate(0.000000,801.000000) scale(0.100000,-0.100000)"
fill="#000000" stroke="none">
<path d="M3768 7675 c-2 -2 -30 -6 -63 -9 -33 -3 -85 -9 -115 -12 -144 -14
-410 -66 -535 -104 -297 -90 -428 -142 -666 -260 -175 -88 -484 -280 -551
-342 -7 -7 -31 -26 -53 -43 -102 -76 -243 -204 -376 -343 -320 -331 -570 -717
-742 -1143 -47 -115 -122 -330 -132 -379 -2 -8 -15 -60 -29 -115 -14 -55 -28
-116 -31 -135 -3 -19 -8 -42 -10 -50 -2 -8 -7 -33 -10 -55 -3 -23 -7 -50 -9
-62 -47 -243 -55 -744 -16 -1028 10 -78 19 -137 26 -169 3 -11 7 -39 10 -60 4
-22 22 -101 41 -175 18 -75 35 -143 38 -152 22 -98 134 -386 214 -551 414
-860 1150 -1522 2051 -1845 202 -72 513 -149 672 -167 26 -3 58 -8 70 -11 66
-14 304 -28 478 -29 184 0 345 11 505 35 121 18 130 20 145 24 8 2 33 6 55 10
22 3 48 8 57 11 9 3 26 7 37 9 12 3 30 7 41 10 11 3 29 7 40 10 11 3 30 7 43
10 185 40 565 191 792 314 413 224 826 567 1101 916 21 28 41 52 44 55 10 9
126 174 177 251 200 303 367 683 463 1053 23 86 57 246 65 301 3 23 7 50 9 61
2 12 7 45 11 75 3 30 8 65 10 79 10 65 18 242 18 405 0 274 -17 457 -69 711
-29 146 -34 165 -38 173 -3 4 -8 22 -11 39 -3 17 -28 101 -56 187 -123 382
-304 730 -544 1050 -130 172 -181 231 -345 395 -284 285 -582 501 -935 678
-91 45 -311 141 -335 146 -3 1 -9 4 -15 7 -12 7 -223 78 -251 84 -10 2 -50 13
-89 23 -151 43 -377 84 -580 107 -60 7 -601 16 -607 10z"/>
</g>
</svg>
