<?xml version="1.0" encoding="utf-8"?>
<!-- Generator: Adobe Illustrator 15.0.0, SVG Export Plug-In . SVG Version: 6.00 Build 0)  -->
<!DOCTYPE svg PUBLIC "-//W3C//DTD SVG 1.1//EN" "http://www.w3.org/Graphics/SVG/1.1/DTD/svg11.dtd">
<svg version="1.1" id="Layer_1" xmlns="http://www.w3.org/2000/svg" xmlns:xlink="http://www.w3.org/1999/xlink" x="0px" y="0px"
	 width="230px" height="228px" viewBox="0 0 230 228" enable-background="new 0 0 230 228" xml:space="preserve">
<g>
	<g>
		<path fill-rule="evenodd" clip-rule="evenodd" fill="#FFFFFF" d="M113.562,10.215c56.387,0,102.099,45.711,102.099,102.099
			s-45.712,102.099-102.099,102.099c-56.388,0-102.099-45.711-102.099-102.099S57.174,10.215,113.562,10.215z"/>
	</g>
	<path fill-rule="evenodd" clip-rule="evenodd" fill="#010101" d="M51.979,158.096c15.261,7.969,47.673,22.014,66.851,7.293
		c19.835-15.225,20.864-39.489,40.65-37.679c20.663,1.891,27.686,9.048,47.269-22.284c0,0,8.728,34.568-36.869,77.384
		c-33.223,31.197-79.864,15.591-78.6,15.801c4.862,0.811,21.473-4.861,22.283-12.154C113.562,186.457,67.375,190.509,51.979,158.096
		z"/>
	<path fill-rule="evenodd" clip-rule="evenodd" fill="#010101" d="M147.596,28.852c0,0,33.627-1.621,53.074,51.049
		c0,0,1.621,4.862-2.836,4.862s-16.206-13.37-92.375,34.438c0,0-70.497,11.75-85.893-15.396c0,0-1.215-43.757,32.007-62.394
		c0,0-12.965,14.181,1.621,25.93c0,0-21.878,13.37-19.448,33.627c0,0,10.943-22.779,23.094-22.283
		c6.618,0.27,2.836,20.663,9.268,21.625c-2.042-1.435-2.301-20.037,0.456-20.815c2.633-0.743,6.077-2.836,8.508,0.811
		c2.431,3.646,10.534,19.042,10.534,19.042s-2.026-23.499-4.457-26.74c-2.431-3.241,2.836-0.405,2.836-0.405
		s14.585,5.267,19.042,12.56c0,0-7.293-12.155-12.155-17.827c0,0,6.077-6.888,6.482-8.508s17.422,4.862,19.447,8.508
		c0,0-0.405-5.672-14.18-12.56c0,0-0.405-10.129-2.026-10.534c0,0,38.49-3.241,42.946,18.232c0,0,16.207-7.698,32.818,2.836
		C176.361,64.911,169.474,39.386,147.596,28.852z"/>
	<path fill-rule="evenodd" clip-rule="evenodd" fill="#ED2024" d="M201.48,86.384c0,0-14.559-11.591-32.817-8.508
		c-31.196,5.267-64.825,38.49-96.832,39.3c-32.007,0.811-51.859-15.396-51.859-15.396l-0.811,4.051c0,0,19.604,35.079,66.445,27.551
		C153.672,122.442,148.811,77.875,201.48,86.384z"/>
</g>
</svg>
