<?xml version="1.0" encoding="utf-8"?>
<!-- Generator: Adobe Illustrator 15.0.0, SVG Export Plug-In . SVG Version: 6.00 Build 0)  -->
<!DOCTYPE svg PUBLIC "-//W3C//DTD SVG 1.1//EN" "http://www.w3.org/Graphics/SVG/1.1/DTD/svg11.dtd">
<svg version="1.1" id="Layer_1" xmlns="http://www.w3.org/2000/svg" xmlns:xlink="http://www.w3.org/1999/xlink" x="0px" y="0px"
	 width="230px" height="228px" viewBox="0 0 230 228" enable-background="new 0 0 230 228" xml:space="preserve">
<g>
	<g>
		<path fill-rule="evenodd" clip-rule="evenodd" fill="#FFFFFF" d="M118.158,13.642c-56.388,0-102.099,45.711-102.099,102.099
			S61.771,217.84,118.158,217.84c56.387,0,102.099-45.711,102.099-102.099S174.545,13.642,118.158,13.642z M24.162,107.233
			c0,0-1.215-43.757,32.007-62.394c0,0-12.965,14.18,1.621,25.93c0,0-21.878,13.37-19.447,33.628c0,0,10.942-22.78,23.094-22.284
			c6.617,0.271,2.836,20.663,9.268,21.625c-2.042-1.435-2.301-20.037,0.456-20.814c2.633-0.743,6.077-2.836,8.508,0.81
			c2.431,3.646,10.534,19.042,10.534,19.042s-2.025-23.499-4.457-26.74c-2.431-3.241,2.836-0.405,2.836-0.405
			s14.586,5.267,19.042,12.56c0,0-7.293-12.155-12.155-17.827c0,0,6.078-6.888,6.482-8.508c0.405-1.621,17.422,4.862,19.448,8.508
			c0,0-0.405-5.672-14.181-12.56c0,0-0.405-10.129-2.026-10.534c0,0,38.49-3.241,42.946,18.232c0,0,16.207-7.698,32.818,2.836
			c0,0-6.888-25.525-28.766-36.059c0,0,33.627-1.621,53.074,51.05c0,0,1.621,4.862-2.836,4.862s-16.205-13.37-92.375,34.438
			C110.055,122.629,39.558,134.378,24.162,107.233z M174.475,186.238c-33.223,31.196-79.864,15.59-78.6,15.801
			c4.862,0.811,21.473-4.862,22.284-12.155c0,0-46.188,4.052-61.583-28.36c15.261,7.969,47.673,22.014,66.85,7.293
			c19.835-15.226,20.864-39.49,40.651-37.68c20.662,1.892,27.685,9.049,47.268-22.283
			C211.344,108.854,220.071,143.421,174.475,186.238z"/>
	</g>
	<path fill-rule="evenodd" clip-rule="evenodd" fill="#ED2024" d="M206.076,89.812c0,0-14.558-11.591-32.817-8.508
		c-31.196,5.267-64.825,38.49-96.832,39.299c-32.007,0.811-51.86-15.396-51.86-15.396l-0.811,4.052c0,0,19.604,35.079,66.445,27.55
		C158.268,125.87,153.406,81.303,206.076,89.812z"/>
</g>
</svg>
