<?xml version="1.0" encoding="utf-8"?>
<!-- Generator: Adobe Illustrator 26.3.1, SVG Export Plug-In . SVG Version: 6.00 Build 0)  -->
<svg version="1.1" id="Layer_1" xmlns="http://www.w3.org/2000/svg" xmlns:xlink="http://www.w3.org/1999/xlink" x="0px" y="0px"
	 viewBox="0 0 230 228" style="enable-background:new 0 0 230 228;" xml:space="preserve">
<style type="text/css">
	.st0{fill:#999999;}
	.st1{fill:#FFFFFF;}
	.st2{filter:url(#Adobe_OpacityMaskFilter);}
	.st3{mask:url(#SVGID_1_);}
	.st4{fill:#4D4D4D;}
	.st5{fill:#D83D23;}
</style>
<g>
	<g>
		
			<ellipse transform="matrix(0.2298 -0.9732 0.9732 0.2298 -20.149 199.7645)" class="st0" cx="116.1" cy="112.6" rx="100.9" ry="100.9"/>
		<path class="st1" d="M116.1,16.5c53.1,0,96.1,43,96.1,96.1s-43,96.1-96.1,96.1S20,165.7,20,112.6S63,16.5,116.1,16.5 M116.1,6.9
			C57.8,6.9,10.4,54.3,10.4,112.6s47.4,105.7,105.7,105.7s105.7-47.4,105.7-105.7S174.4,6.9,116.1,6.9L116.1,6.9z"/>
	</g>
	<defs>
		<filter id="Adobe_OpacityMaskFilter" filterUnits="userSpaceOnUse" x="-2.1" y="12.8" width="248.5" height="202.4">
			<feColorMatrix  type="matrix" values="1 0 0 0 0  0 1 0 0 0  0 0 1 0 0  0 0 0 1 0"/>
		</filter>
	</defs>
	<mask maskUnits="userSpaceOnUse" x="-2.1" y="12.8" width="248.5" height="202.4" id="SVGID_1_">
		<g class="st2">
			<circle class="st1" cx="116.1" cy="112.6" r="96.1"/>
		</g>
	</mask>
	<g class="st3">
		<g>
			<path class="st4" d="M212.7,139.5l-36.5-2.9l-28.2-32l-45.5,34.3l-54.6-12.7L13.2,145c20.2,33,34.5,68.9,96.6,70.1
				C169.8,216.4,193.3,175.5,212.7,139.5z"/>
		</g>
		<g>
			<path class="st5" d="M201,12.8c-10,6.9-12.3,21.1-16.1,32.9c-1.7,4-5.2,8-8.6,9.2c-6.9,2.3-4.6-8-8-11.5
				c-2.9-1.7-6.3,0.6-7.5,3.4c-3.4,8-4,19.5-12.1,21.8c-10.3,3.4-19.5-10.3-30.5-13.2c-9.8-2.3-19.5,8-23,17.8
				c-7.5,19-2.9,39.1,4.6,56.9c-6.9,1.1-13.2-2.3-19-5.2c-18.4-9.8-41.4-9.8-58.1,5.2c-0.4,0.5-0.9,0.9-1.4,1.2
				c-4.1,2.2-8.5,3.9-13,5c2.5,5,5.4,9.9,8.6,14.5c8.1-2.1,15.7-5.5,23.6-9.7c14.9-8,33.9,1.1,48.9,8c18.4,8.6,33.3-7.5,43.1-23
				c3.4-5.7,10.3-12.1,15.5-9.2c10.9,5.7,13.8,19,21.3,29.3c4,6.3,12.6,6.3,17.8,2.9c3.4-1.7,5.2-6.9,9.2-5.2
				c3.8,1.4,7.7,2.4,11.7,3.1C234.9,105.5,232,51.4,201,12.8z"/>
		</g>
		<g>
			<path class="st1" d="M-2.1,146.7c19.1-18.4,45.9-26.2,72-20.2c8.9,1.6,20.7,6.2,28.3-0.5c2.5-2.3,4.5-6.6,6-11.8
				c2.6-8.5,4.3-19.3,9-28.2c6.8-13.7,22.1-20.9,37.1-16.6c9,2.3,14.9,7.2,23.4,7.5c18.7-0.4,33.2-31.9,39.9-47.1
				c0,0,32.7,15.6,32.7,15.6c-11.4,21.1-26,44.6-49.1,55.7c-7.9,3.7-17.2,5.4-26,4.3c-7.6-0.8-15.9-4.5-22-8.1
				c-3.9-2.1-6.5-3.9-9.8-4.2c-5.2,0.1-7.6,5.9-9.8,10.6c-2.2,5-4.1,11-6.8,17.3c-7,16.7-18.5,26.6-37.5,24
				c-6.4-0.9-13-3.7-18.9-5.6c-5.6-1.8-11-3.2-16.7-3.7c-11.7-1.1-23.5,0.7-34.6,4.3C9.4,142,3.8,144.4-1.9,147
				C-1.9,147-2.1,146.7-2.1,146.7L-2.1,146.7z"/>
		</g>
	</g>
</g>
</svg>
